<mxfile host="Electron" modified="2024-07-06T18:31:01.773Z" agent="Mozilla/5.0 (X11; Linux x86_64) AppleWebKit/537.36 (KHTML, like Gecko) draw.io/24.5.3 Chrome/124.0.6367.207 Electron/30.0.6 Safari/537.36" etag="0r28zsBMVS2X01z346Tn" version="24.5.3" type="device">
  <diagram name="Page-1" id="ZcRAXSWJTWcisyccbfvs">
    <mxGraphModel dx="899" dy="153" grid="1" gridSize="5" guides="1" tooltips="1" connect="1" arrows="1" fold="1" page="0" pageScale="1" pageWidth="827" pageHeight="1169" math="0" shadow="0">
      <root>
        <mxCell id="0" />
        <mxCell id="1" parent="0" />
        <mxCell id="d59_AvBsbAl0vUfltekq-19" value="" style="rounded=0;whiteSpace=wrap;html=1;strokeColor=none;fillColor=none;" vertex="1" parent="1">
          <mxGeometry x="85" y="410" width="500" height="500" as="geometry" />
        </mxCell>
        <mxCell id="aZooovynMMBxmRVDPCQJ-27" value="" style="rounded=0;whiteSpace=wrap;html=1;strokeColor=none;fillColor=#C4EFFF;" parent="1" vertex="1">
          <mxGeometry x="128" y="608" width="332" height="10" as="geometry" />
        </mxCell>
        <mxCell id="aZooovynMMBxmRVDPCQJ-3" value="" style="endArrow=none;html=1;rounded=0;strokeWidth=4;strokeColor=#FFFFFF;" parent="1" edge="1">
          <mxGeometry width="50" height="50" relative="1" as="geometry">
            <mxPoint x="520" y="660" as="sourcePoint" />
            <mxPoint x="520" y="660" as="targetPoint" />
            <Array as="points">
              <mxPoint x="520" y="720" />
              <mxPoint x="480" y="695" />
              <mxPoint x="460" y="740" />
              <mxPoint x="420" y="740" />
              <mxPoint x="400" y="720" />
              <mxPoint x="200" y="720" />
              <mxPoint x="160" y="760" />
              <mxPoint x="120" y="760" />
              <mxPoint x="120" y="560" />
              <mxPoint x="160" y="560" />
              <mxPoint x="200" y="600" />
              <mxPoint x="400" y="600" />
              <mxPoint x="420" y="580" />
              <mxPoint x="460" y="580" />
              <mxPoint x="480" y="625" />
              <mxPoint x="520" y="600" />
            </Array>
          </mxGeometry>
        </mxCell>
        <mxCell id="aZooovynMMBxmRVDPCQJ-6" value="" style="endArrow=none;html=1;rounded=0;strokeWidth=4;strokeColor=#FFFFFF;" parent="1" edge="1">
          <mxGeometry width="50" height="50" relative="1" as="geometry">
            <mxPoint x="200" y="720" as="sourcePoint" />
            <mxPoint x="200" y="600" as="targetPoint" />
          </mxGeometry>
        </mxCell>
        <mxCell id="aZooovynMMBxmRVDPCQJ-8" value="" style="endArrow=none;html=1;rounded=0;strokeWidth=4;strokeColor=#FFFFFF;" parent="1" edge="1">
          <mxGeometry width="50" height="50" relative="1" as="geometry">
            <mxPoint x="400" y="720" as="sourcePoint" />
            <mxPoint x="400" y="600" as="targetPoint" />
          </mxGeometry>
        </mxCell>
        <mxCell id="aZooovynMMBxmRVDPCQJ-10" value="" style="endArrow=none;html=1;rounded=0;strokeWidth=4;strokeColor=#FFFFFF;" parent="1" edge="1">
          <mxGeometry width="50" height="50" relative="1" as="geometry">
            <mxPoint x="480" y="695" as="sourcePoint" />
            <mxPoint x="480" y="625" as="targetPoint" />
          </mxGeometry>
        </mxCell>
        <mxCell id="aZooovynMMBxmRVDPCQJ-16" value="" style="rounded=0;whiteSpace=wrap;html=1;strokeColor=none;fillColor=#FFBC21;" parent="1" vertex="1">
          <mxGeometry x="215" y="640" width="20" height="10" as="geometry" />
        </mxCell>
        <mxCell id="aZooovynMMBxmRVDPCQJ-24" value="" style="endArrow=none;html=1;rounded=0;strokeWidth=4;strokeColor=#FFFFFF;" parent="1" edge="1">
          <mxGeometry width="50" height="50" relative="1" as="geometry">
            <mxPoint x="120" y="695" as="sourcePoint" />
            <mxPoint x="480" y="695" as="targetPoint" />
          </mxGeometry>
        </mxCell>
        <mxCell id="aZooovynMMBxmRVDPCQJ-25" value="" style="endArrow=none;html=1;rounded=0;strokeWidth=4;strokeColor=#FFFFFF;" parent="1" edge="1">
          <mxGeometry width="50" height="50" relative="1" as="geometry">
            <mxPoint x="120" y="625" as="sourcePoint" />
            <mxPoint x="480" y="625" as="targetPoint" />
          </mxGeometry>
        </mxCell>
        <mxCell id="aZooovynMMBxmRVDPCQJ-26" value="" style="rounded=0;whiteSpace=wrap;html=1;strokeColor=none;fillColor=#C4EFFF;" parent="1" vertex="1">
          <mxGeometry x="128" y="703" width="332" height="10" as="geometry" />
        </mxCell>
        <mxCell id="46c094-UPDHcIbxBlmO9-2" value="" style="endArrow=none;html=1;rounded=0;strokeWidth=4;strokeColor=#FFFFFF;" parent="1" edge="1">
          <mxGeometry width="50" height="50" relative="1" as="geometry">
            <mxPoint x="120" y="600" as="sourcePoint" />
            <mxPoint x="470" y="600" as="targetPoint" />
          </mxGeometry>
        </mxCell>
        <mxCell id="46c094-UPDHcIbxBlmO9-3" value="" style="endArrow=none;html=1;rounded=0;strokeWidth=4;strokeColor=#FFFFFF;" parent="1" edge="1">
          <mxGeometry width="50" height="50" relative="1" as="geometry">
            <mxPoint x="119" y="720" as="sourcePoint" />
            <mxPoint x="470" y="720" as="targetPoint" />
          </mxGeometry>
        </mxCell>
        <mxCell id="46c094-UPDHcIbxBlmO9-73" value="" style="ellipse;whiteSpace=wrap;html=1;fillColor=none;strokeWidth=3;strokeColor=#229DF0;" parent="1" vertex="1">
          <mxGeometry x="165" y="635" width="20" height="20" as="geometry" />
        </mxCell>
        <mxCell id="46c094-UPDHcIbxBlmO9-74" value="" style="ellipse;whiteSpace=wrap;html=1;fillColor=none;strokeWidth=3;strokeColor=#229DF0;" parent="1" vertex="1">
          <mxGeometry x="165" y="665" width="20" height="20" as="geometry" />
        </mxCell>
        <mxCell id="46c094-UPDHcIbxBlmO9-79" value="" style="ellipse;whiteSpace=wrap;html=1;fillColor=none;strokeWidth=3;strokeColor=#229DF0;" parent="1" vertex="1">
          <mxGeometry x="415" y="635" width="20" height="20" as="geometry" />
        </mxCell>
        <mxCell id="46c094-UPDHcIbxBlmO9-80" value="" style="ellipse;whiteSpace=wrap;html=1;fillColor=none;strokeWidth=3;strokeColor=#229DF0;" parent="1" vertex="1">
          <mxGeometry x="415" y="665" width="20" height="20" as="geometry" />
        </mxCell>
        <mxCell id="46c094-UPDHcIbxBlmO9-85" value="" style="rounded=0;whiteSpace=wrap;html=1;strokeColor=none;fillColor=#FFBC21;" parent="1" vertex="1">
          <mxGeometry x="215" y="670" width="20" height="10" as="geometry" />
        </mxCell>
        <mxCell id="46c094-UPDHcIbxBlmO9-86" value="" style="rounded=0;whiteSpace=wrap;html=1;strokeColor=none;fillColor=#FFBC21;" parent="1" vertex="1">
          <mxGeometry x="365" y="640" width="20" height="10" as="geometry" />
        </mxCell>
        <mxCell id="46c094-UPDHcIbxBlmO9-88" value="" style="rounded=0;whiteSpace=wrap;html=1;strokeColor=none;fillColor=#FFBC21;" parent="1" vertex="1">
          <mxGeometry x="365" y="670" width="20" height="10" as="geometry" />
        </mxCell>
        <mxCell id="d59_AvBsbAl0vUfltekq-9" value="" style="rounded=0;whiteSpace=wrap;html=1;fillColor=none;strokeWidth=3;strokeColor=#F0CC16;" vertex="1" parent="1">
          <mxGeometry x="250" y="635" width="100" height="50" as="geometry" />
        </mxCell>
        <mxCell id="d59_AvBsbAl0vUfltekq-10" value="" style="rounded=0;whiteSpace=wrap;html=1;fillColor=none;strokeWidth=3;strokeColor=#F0CC16;" vertex="1" parent="1">
          <mxGeometry x="255" y="640" width="90" height="40" as="geometry" />
        </mxCell>
        <mxCell id="d59_AvBsbAl0vUfltekq-12" value="" style="ellipse;whiteSpace=wrap;html=1;strokeWidth=4;strokeColor=#BEF0B4;" vertex="1" parent="1">
          <mxGeometry x="310" y="650" width="20" height="20" as="geometry" />
        </mxCell>
        <mxCell id="d59_AvBsbAl0vUfltekq-13" value="" style="ellipse;whiteSpace=wrap;html=1;strokeWidth=4;strokeColor=#BEF0B4;" vertex="1" parent="1">
          <mxGeometry x="270" y="650" width="20" height="20" as="geometry" />
        </mxCell>
        <mxCell id="d59_AvBsbAl0vUfltekq-16" value="" style="ellipse;whiteSpace=wrap;html=1;strokeWidth=4;strokeColor=#BEF0B4;" vertex="1" parent="1">
          <mxGeometry x="130" y="650" width="20" height="20" as="geometry" />
        </mxCell>
        <mxCell id="d59_AvBsbAl0vUfltekq-17" value="" style="ellipse;whiteSpace=wrap;html=1;strokeWidth=4;strokeColor=#BEF0B4;" vertex="1" parent="1">
          <mxGeometry x="450" y="650" width="20" height="20" as="geometry" />
        </mxCell>
      </root>
    </mxGraphModel>
  </diagram>
</mxfile>
